
<?xml version="1.0" encoding="UTF-8"?>
<svg id="Layer_2" data-name="Layer 2" xmlns="http://www.w3.org/2000/svg" viewBox="0 0 782.59 703.97">
  <defs>
    <style>
      .cls-1 {
        fill: #2e7548;
      }

      .cls-1, .cls-2, .cls-3, .cls-4, .cls-5, .cls-6, .cls-7, .cls-8, .cls-9, .cls-10, .cls-11, .cls-12, .cls-13, .cls-14, .cls-15, .cls-16, .cls-17 {
        stroke-width: 0px;
      }

      .cls-2 {
        fill: #1a7042;
      }

      .cls-3 {
        fill: #1a7043;
      }

      .cls-4 {
        fill: #176f42;
      }

      .cls-5 {
        fill: #116c3d;
      }

      .cls-6 {
        fill: #196f42;
      }

      .cls-7 {
        fill: #136d3f;
      }

      .cls-8 {
        fill: #217244;
      }

      .cls-9 {
        fill: #1b6f41;
      }

      .cls-10 {
        fill: #156e41;
      }

      .cls-11 {
        fill: #156f41;
      }

      .cls-12 {
        fill: #146e40;
      }

      .cls-13 {
        fill: #257548;
      }

      .cls-14 {
        fill: #237448;
      }

      .cls-15 {
        fill: #1e7144;
      }

      .cls-16 {
        fill: #237245;
      }

      .cls-17 {
        fill: #227245;
      }
    </style>
  </defs>
  <g id="Layer_1-2" data-name="Layer 1">
    <g>
      <path class="cls-5" d="m565.7,130.46c.18,1.41.39,2.66.49,3.92,2.13,28.2-.97,55.69-11.29,82.18-7.65,19.64-19.05,36.88-33.82,51.86-5.22,5.29-10.82,10.2-16.25,15.27-.35.32-.77.56-1.2.86.41.65.62,1.07.9,1.44,10.05,13.61,12,28.55,7.35,44.59-1.75,6.01-4.11,11.79-7.24,17.19-10.04,17.32-17.99,35.64-26.09,53.89-1.62,3.65-3.39,7.24-4.8,10.97-.89,2.36-1.59,4.9-1.74,7.4-.11,1.87.8,3.8,1.3,5.9.66-.34,1.03-.48,1.34-.7,9.85-7.11,19.84-14.04,28.92-22.17,14.97-13.42,27.56-28.68,36.63-46.71,6.85-13.63,11.11-28.04,12.77-43.2.58-5.32.92-10.67,1.21-16.01.66-12.19,2.98-24.09,6.23-35.82,2.35-8.46,4.94-16.86,7.55-25.24,2.05-6.56,5.44-12.43,9.81-17.72,4.19-5.07,8.89-9.64,14.02-13.75,2.66-2.13,5.62-3.63,9.05-4.1,6.18-.85,10.96,1.41,14.4,6.52,2.87,4.27,3.85,9.13,3.79,14.15-.05,4.23-.31,8.47-.85,12.66-1.04,8.12-1.18,16.26-.95,24.42.57,20.3,1.28,40.59,1.78,60.89.29,11.91.7,23.83.32,35.73-1.04,32.28-11.35,61.35-31.22,86.92-6.79,8.74-14.66,16.48-22.54,24.21-34.04,33.39-71.01,63.29-109.45,91.41-14.97,10.95-30.23,21.49-45.41,32.14-2.34,1.64-4.89,3.03-7.48,4.26-4.33,2.08-8.79,1.89-12.9-.48-3.93-2.26-7.76-4.79-11.37-7.54-8.59-6.53-17.02-13.28-25.54-19.91-37.05-28.82-73.69-58.14-109.93-87.98-12.25-10.08-23.83-20.85-33.92-33.14-11.47-13.97-20.5-29.3-25.88-46.66-2.92-9.43-4.47-19.1-5.2-28.94-.87-11.81-1.11-23.64-1.04-35.47.09-13.35.63-26.7.65-40.04.03-15.51-.32-31.02-.44-46.52-.06-7.19-.07-14.39.08-21.59.12-5.73,1.41-11.24,3.76-16.48,2.45-5.46,6.08-7.39,12.08-6.76,6.84.73,12.7,3.43,17.82,8.01,8.88,7.96,15.13,17.67,19.57,28.64,4.07,10.06,6.63,20.53,8.07,31.24,1.24,9.18,2.05,18.42,2.96,27.64,1.21,12.17,2.34,24.34,5.47,36.22,5.73,21.75,16.71,40.5,32.28,56.64,9.43,9.78,20.01,18.14,31.38,25.52,3.15,2.04,6.3,4.09,9.47,6.11.58.37,1.21.68,2.22,1.24-.31-2.53-.51-4.64-.85-6.74-3.29-20.24-10.62-38.9-21.7-56.14-3.97-6.18-7.88-12.42-11.56-18.78-4.49-7.77-7.25-16.15-7.98-25.15-.83-10.21,2.4-19.04,9.14-26.65,1.21-1.36,2.51-2.64,3.92-4.11-1.15-.98-2.23-1.91-3.31-2.82-14.79-12.45-27.61-26.61-37.68-43.18-10.55-17.36-17.26-36.11-20.49-56.14-2.62-16.19-2.99-32.45-1.49-48.77.19-2.13.35-4.26.55-6.59,6.18,2.19,12.05,4.26,17.91,6.34,20.02,7.1,40.07,14.12,59.76,22.09,3.39,1.37,6.93,2.41,10.44,3.43,3.56,1.04,6.74-.04,9.19-2.65,1.78-1.9,3.48-4.04,4.6-6.37,8.79-18.28,21.17-33.84,35.94-47.56,6.96-6.47,14.31-12.54,21.55-18.7,3.68-3.13,8.46-3.44,12.7-1.08.63.35,1.23.75,1.79,1.2,12.4,10.01,24.34,20.5,34.88,32.5,9.44,10.74,17.5,22.41,23.88,35.23.96,1.92,2.07,3.79,3.34,5.52,1.96,2.67,4.75,3.43,7.9,2.63,2.16-.55,4.29-1.26,6.39-2.02,24.34-8.76,48.68-17.54,73.01-26.33,3.54-1.28,7.18-2,11.06-2.31Zm37.77,80.82c-.48.28-.72.36-.88.52-4.3,4.29-8.69,8.5-12.87,12.91-6.83,7.2-11.17,15.91-14.72,25.05-5.86,15.11-7.92,30.89-8.1,46.97-.09,8.16-.4,16.31-1.64,24.38-2.36,15.37-7.35,29.89-14.54,43.66-10.28,19.68-24.31,36.34-40.97,50.88-15.43,13.46-32.53,24.21-51.64,31.67-.63.25-1.29.43-2.32.77-.05-2.6-.42-4.94-.09-7.18,1.26-8.53,2.41-17.1,4.22-25.52,5.12-23.83,14.22-46.03,27.94-66.26,5.32-7.85,9.6-16.21,12.37-25.31,1.17-3.83,1.44-7.66.4-11.57-.84-3.16-1.55-6.36-2.34-9.54-.13-.52-.32-1.01-.58-1.83-4.39,1.71-8.64,3.26-12.8,5.04-1.36.58-2.62,1.59-3.66,2.66-14.86,15.24-27.08,32.31-35.79,51.8-4.7,10.53-7.97,21.55-11.28,32.56-6.46,21.51-11.9,43.27-16.16,65.3-2.62,13.56-4.88,27.2-6.96,40.85-1.49,9.79-2.5,19.65-3.56,29.5-.87,8.02-1.58,16.07-2.2,24.11-.38,4.94-.58,9.9-.59,14.84,0,2.66.57,5.32.89,7.99,3.51-.62,4.77-1.09,7.08-2.81,20.47-15.21,41.08-30.22,61.35-45.69,27.98-21.36,54.86-44.04,80.28-68.42,7.21-6.92,14.44-13.83,20.8-21.57,20.31-24.73,30.3-53.37,32.03-85.07.39-7.17.2-14.38.14-21.57-.15-17.19-.33-34.37-.59-51.56-.28-18.22-.68-36.44-1-54.66-.08-4.34-1.16-8.49-2.2-12.93Zm-213.33,364.39c.22-3.83.7-7.24.57-10.63-.4-10.22-.82-20.45-1.63-30.65-.77-9.63-2.01-19.23-3.09-28.84-1.33-11.91-3.07-23.76-5.22-35.56-5.5-30.31-13.29-60.01-23.16-89.18-4.56-13.47-10.01-26.47-18.31-38.08-8.6-12.03-17.41-23.91-26.17-35.83-.65-.88-1.52-1.68-2.44-2.26-3.56-2.24-7.66-2.88-11.66-4.09-.85,2.06-1.59,3.91-2.38,5.74-3.63,8.43-2.79,8.43-.77,15.18,2.82,9.45,6.5,18.54,12.03,26.79,19.03,28.39,29.43,59.72,31.85,93.76.2,2.77.31,5.55.48,8.57-.82-.39-1.48-.65-2.08-1-6.45-3.69-12.91-7.37-19.34-11.1-17.98-10.43-33.96-23.37-48.15-38.52-26.51-28.31-40.35-61.92-41.68-100.67-.33-9.7-1.66-19.25-4.02-28.67-3.1-12.33-7.35-24.3-11.4-36.33-1.11-3.3-3.14-6.11-5.46-8.67-2.3-2.55-4.69-5.03-7.05-7.53-1.8-1.91-3.63-3.79-5.53-5.78-1.85.92-3.62,1.81-5.34,2.66,0,.84-.03,1.48,0,2.11.32,5.43.88,10.85.91,16.28.06,9.75-.13,19.5-.34,29.25-.5,23.18-1.08,46.35-1.63,69.53-.29,11.92-.32,23.81,1.44,35.65,2.06,13.84,5.9,27.13,11.86,39.8,7.61,16.18,18.2,30.22,30.83,42.77,20.78,20.65,42.71,40.01,65.45,58.47,27.33,22.18,55.68,42.99,84.25,63.53.97.7,1.98,1.37,3.06,1.87,1.2.55,2.49.88,4.12,1.43Zm9.59-89.08c.7-3.21,1.5-6.14,1.97-9.12,2.15-13.82,4.76-27.54,8-41.14,7.7-32.34,17.33-64.12,28.26-95.5,3.2-9.2,6.54-18.35,9.56-27.61,3-9.22,3.4-18.65,1.31-28.16-1.62-7.37-4.82-14.01-8.98-20.24-9.65-14.44-21.1-27.31-33.79-39.11-1.45-1.35-3.15-2.45-4.82-3.54-2.13-1.39-4.42-1.42-6.57-.09-1.83,1.13-3.67,2.31-5.26,3.74-4.21,3.81-8.39,7.66-12.38,11.69-7.45,7.51-14.33,15.48-19.85,24.57-8.74,14.37-11.8,29.83-9.29,46.47,1.21,8.02,3.33,15.78,6.21,23.33,5.71,15,11.2,30.08,15.54,45.55,5.22,18.6,10.18,37.27,15.39,55.88,3.9,13.94,7.26,27.97,9.2,42.33.5,3.7,1.26,7.36,1.92,11.15,1.22-.06,2.24-.11,3.58-.18Zm151.49-339.84c-1.05.35-1.8.56-2.53.84-21.84,8.37-43.67,16.74-65.5,25.13-1.41.54-2.8,1.18-4.13,1.9-2.12,1.15-3.32,2.97-3.44,5.4-.09,1.67-.17,3.36-.08,5.02.29,5.18.72,10.36,1,15.55.66,12.37.92,24.75.74,37.14-.16,11.38-1.13,22.65-3.61,33.77-1.95,8.72-3.98,17.43-5.96,26.14-.12.55-.11,1.13-.19,2.01,1-.62,1.67-1.03,2.33-1.46,13.55-8.79,25.71-19.23,36.66-31.08,16.77-18.16,29.91-38.62,38.45-61.88,5.86-15.98,9.02-32.44,7.46-49.57-.27-2.91-.78-5.8-1.21-8.9Zm-223.02,154.59c.11-3.96.19-7.5-.85-11.01-5.57-18.74-9.54-37.78-10.69-57.35-.8-13.62-.31-27.17,1.94-40.63.49-2.91,1.16-5.8,1.63-8.71.77-4.68-1.18-8.16-5.52-9.88-8.84-3.5-17.68-6.97-26.54-10.42-14.14-5.5-28.29-10.98-42.44-16.45-.84-.33-1.73-.53-2.69-.82-.35,3.23-.82,6.16-.96,9.11-.14,3.02-.35,6.12.15,9.08,1.5,8.81,3.31,17.58,5.05,26.35,2.63,13.24,6.7,25.97,13.46,37.74,5.28,9.2,11.5,17.72,18.78,25.4,7.14,7.54,14.55,14.84,21.99,22.09,8.7,8.48,17.56,16.79,26.69,25.49Zm11.05-132.97c1.01.61,1.88,1.16,2.76,1.68,16.24,9.57,32.51,19.08,48.71,28.72,4.88,2.91,9.57,3.09,14.44.13,5.25-3.2,10.51-6.4,15.86-9.42,9.32-5.26,18.73-10.35,28.05-15.6,1.78-1.01,3.48-2.28,4.93-3.72,1.96-1.96,2.2-4.41.81-6.83-.95-1.65-2.06-3.24-3.25-4.73-3.28-4.13-6.59-8.24-9.98-12.28-12.44-14.81-24.9-29.6-37.38-44.38-.65-.77-1.45-1.67-2.35-1.94-3.6-1.09-7.1-1-10.13,1.66-2.4,2.11-4.82,4.2-7.23,6.3-17.61,15.36-32.02,33.2-42.34,54.24-.98,1.99-1.89,4.01-2.9,6.17Zm45.18,40.96c-16.81-9.29-33.31-18.42-49.98-27.64-3.77,14.6-5.35,29.05-5.33,43.73.02,14.97,3.97,39.23,6.31,43.35,16.28-19.75,32.54-39.46,49.01-59.44Zm27.41.12c2.77,4.09,47.95,58.13,49.48,59.17,6.71-28.9,8.77-57.7-.48-86.68-16.43,9.23-32.64,18.33-49,27.51Z"/>
      <path class="cls-7" d="m228.61,69.88c-4.2-.67-7.57,1.47-11.31,2.51-.82-2.01-1.31-4.04-1.34-6.21-.02-1.42.51-2.42,1.79-3.1,2.47-1.31,5.02-2.52,7.3-4.12,3.25-2.28,6.9-3.64,10.5-5.09,3.93-1.58,6.98-4.11,9.69-7.57-.63-.12-1.12-.3-1.62-.3-2,.01-4-.01-5.99.15-3.72.3-6.78,1.76-8.61,5.77-.25-.82-.47-1.2-.47-1.59-.04-1.91-.22-3.85.02-5.74.47-3.63,2.37-6.3,6.1-7.16,2.16-.5,4.42-1,6.61-.92,6.16.2,12.11-.47,17.95-3.31v7.94c-1.65.63-3.27,1.1-4.73,1.86-1.46.76-2.75,1.83-4.06,2.73.51,1.57,1.4,1.12,2.18.79,2.87-1.21,5.68-2.56,8.6-3.64,2.67-.99,5.44-1.67,8.16-2.52,1.98-.62,3.95-1.27,5.92-1.94,1.71-.58,2.27-1.17,2.03-2.97-.25-1.86-.91-3.66-1.55-6.11.79-1.97,1.83-4.6,3.07-7.69,2.35,4.41,3.28,8.71,3.71,13.18,1.46.39,2.63.34,3.98-.31,1.48-.71,3.19-.93,4.81-1.34,1.23-.31,2.47-.59,3.83-.91,0-1.37,0-2.62,0-3.88,0-.54-.15-1.16.07-1.6,1.07-2.12,2.23-4.19,3.42-6.38,1.5,2.27,1.74,4.78,1.07,10.32,2.79.31,5.32-.44,7.93-1.54,0-1.19.21-2.35-.06-3.39-.3-1.15-.03-1.99.57-2.89,1.05-1.58,2.06-3.19,3.16-4.89.85,2.09.99,6.18.42,10.01,1.6.16,4.41-.42,6.75-1.42-.28-.72-.51-1.48-.87-2.16-.37-.7-.87-1.33-1.45-2.19,1.36-2.41,2.75-4.89,4.44-7.91,1.96,6.86,3.03,13.23,2.87,20.01-4.26,1-8.43,1.99-12.6,2.97-1.83-.69-3.1,1.01-4.79,1.14-1.65.13-3.27.69-4.91,1.07-.47.11-.94.19-1.4.33-1.17.36-2.26.52-2.78-1.41-.91,1.97-2.17,2.64-3.84,2.98-1.93.39-3.8,1.16-5.66,1.85-2.43.9-4.78,1.4-6.98-1.26-.23,3.12-1.95,4.27-4.37,5.03-6.91,2.18-13.92,4.1-20.46,7.31-1.29.63-2.36.41-3.22-.61-.92-1.09-1.73-2.29-2.53-3.48-.43-.64-.73-1.37-1.3-2.47-.68,1.35-1.26,2.35-1.7,3.41-.73,1.77-1.37,3.58-2.07,5.36-.8,2.04-2.2,3.44-4.26,4.27-2.95,1.19-5.84,2.53-8.92,3.87.51.94.89,1.6,1.24,2.28,1.5,2.93,1.59,5.7-.49,8.52-3.36,4.56-7.3,8.47-12.02,11.58-2.28,1.5-4.72,2.65-7.41,3.27-5.38,1.24-9.2-.44-11.82-5.27-2.7-4.96-4.05-10.23-3.52-15.9.07-.73-.17-1.66,1.21-2.09.13.8.3,1.53.35,2.27.27,3.95,1.68,7.42,4.15,10.52,1.9,2.4,4.39,3.43,7.22,2.55,6.91-2.16,12.92-5.84,17.54-11.55.18-.22.24-.54.45-1.04Z"/>
      <path class="cls-7" d="m759.25,457.04c-8.62,2.26-16.51,2.26-24.43-1.27.54-3.04,1.08-6,1.59-8.97.86-5.04,1.83-10.06,2.51-15.12.33-2.48.91-4.4,4.36-4.66-3.4-1.81-3.39-4.46-3.08-7.29.84-7.61,2.11-15.19,1.86-22.89-.06-1.87.31-2.45,2.14-2.94,2.04-.55,4.17-.79,6.6-1.23-.95-1.11-1.81-2.2-2.76-3.21-1.2-1.28-2.51-2.46-3.71-3.74-1.37-1.45-2.02-3.15-1.96-5.22.1-3.51-.14-7.03,0-10.54.07-1.71.69-3.39,1.1-5.29-.78-.11-1.7-.22-2.62-.38-3.67-.63-7.08-1.91-10.12-4.1-2.49-1.79-3.87-4.1-3.82-7.3.06-4.5.42-8.93,1.66-13.27.15-.52.37-1.03.6-1.64,1.07.5.81,1.4.86,2.09.38,4.72,1.82,9.07,4.58,12.94,2.57,3.62,5.92,6.22,10.21,7.57,1.03.32,1.89.28,2.67-.4,1.49-1.31,2.94-2.66,4.7-4.26,2.26,1.18,4.76,2.48,7.5,3.91-2.18,2.13-4.43,3.75-6.78,5.19-1.78,1.1-2.41,2.21-2.04,4.47.44,2.63.08,5.42-.09,8.13-.28,4.52.63,8.73,2.98,12.77,1.42-1.67,2.06-3.64,2.76-5.57,1.89-5.24,1.76-6.67-1.11-11.7,4.22,1.14,7.87,2.51,10.05,6.26.87,1.5,1.15,3.21.71,4.88-.74,2.76-1.36,5.63-2.59,8.18-2.23,4.63-3.47,9.42-3.67,14.51-.02.46-.07.92-.13,1.78-2.57-1.25-4.88-2.37-7.27-3.53.88-3.47.61-6.74-.62-9.95-1.34.08-1.33.99-1.35,1.88-.06,2.72.02,5.44-.2,8.15-.36,4.36-.93,8.7-1.41,13.05-.14,1.27-.35,2.54-.36,3.82,0,.99.25,1.99.41,3.04,1.66.03,2.73-.76,3.63-1.57,2.26-2.02,4.48-4.1,6.55-6.31,1.74-1.86,3.32-3.89,4.83-5.96.82-1.12,1.68-1.38,2.84-.81,2.07,1.02,4.15,2.04,6.16,3.18.57.32,1.1.98,1.32,1.59,2.86,7.91,4.18,16.05,3.51,24.48-.02.22-.14.43-.32.93-2.22-.91-4.4-1.8-6.8-2.78.43-6.91.04-13.76-2.48-20.62-.41.52-.67.8-.88,1.12-4.09,5.96-9.56,10.08-16.55,11.94-2.55.68-3.33,2.09-3.68,4.51-.81,5.51-1.93,10.98-2.92,16.47-.14.76-.22,1.53-.35,2.42,3.34.1,5.94-1.14,8.51-3.12,2.18,2.02,4.37,4.05,6.91,6.4Z"/>
      <path class="cls-7" d="m47.35,243.8c.59.6,1.21,1.18,1.76,1.81,2.5,2.86,5.6,4.72,9.25,5.69,2.97.79,5.69.27,7.52-2.3,4.21-5.89,6.8-12.43,7.11-19.76,0-.22-.08-.45-.19-.97-3.93,1.79-5.26,5.7-7.82,8.89-1.49-1.35-3.01-2.6-4.39-4-1.09-1.11-1.35-2.42-.63-3.95,2.44-5.2,4.46-10.59,7.47-15.52,1.37-2.24,1.26-2.87-.37-4.93-.64-.82-1.36-1.58-1.97-2.41-2.04-2.78-2.77-5.9-2.15-9.3.6-3.29,2.32-4.49,5.58-3.99,2.37.36,4.75.68,7.1,1.12,1.52.28,2.68-.1,3.55-1.36,3.34-4.87,6.67-9.74,10-14.62.17-.25.25-.57.37-.85-2.64-1.42-4.22-1.56-8.92-.72-1.17-2.65-2.38-5.38-3.74-8.46,8.7,1.17,15.91,4.41,21.8,10.67-.3.59-.5,1.1-.8,1.54-3.79,5.63-7.58,11.27-11.42,16.87-1.15,1.68-1.98,3.3-.49,5.19.14.18.17.44.24.68.02.07-.03.15-.14.68-4.16,2.76-8.61,5.7-12.96,8.58.45,1.7,1.33,3.45,1.23,5.15-.09,1.64-1.18,3.23-1.83,4.84,6.35,2.89,6.96,4.43,6.61,11.38-.25,4.97-1.21,9.83-3.15,14.44-1.13,2.68-2.59,5.14-4.75,7.12-3.07,2.82-6.55,3.51-10.41,1.88-5.36-2.26-9.84-5.62-13.01-10.57-.48-.75-.78-1.61-1.16-2.42.23-.14.47-.28.7-.42Zm28.04-44.35c-1.48-.29-2.61-.59-3.75-.7-1.19-.11-2.53-.2-3.14,1.15-.64,1.4-.86,2.87.37,4.3,2.3-1.25,4.47-2.51,6.52-4.76Z"/>
      <path class="cls-7" d="m526.73,47.85c.57-3.61.39-4.79-1.34-9.01,2.34-1.7,4.76-3.45,7.56-5.49.59,8.8-1.01,16.54-5.9,23.63-.71-.21-1.31-.36-1.88-.57-7.39-2.8-14.76-5.65-22.17-8.38-2.02-.74-3.03-1.96-2.82-4.09-.24-.04-.45-.13-.51-.07-1.89,1.89-4.05,1.9-6.43,1.11-3.56-1.18-7.15-2.29-10.73-3.38-1.83-.56-3.7-1.01-5.54-1.53-2.65-.75-3.65-2.31-3.27-4.99.89-6.24,1.78-12.48,2.61-18.73.36-2.69.59-5.4.78-8.11.08-1.12.43-1.95,1.36-2.62,1.85-1.35,3.64-2.79,5.86-4.51-.24,2.18-.36,3.88-.62,5.56-1.16,7.57-2.36,15.14-3.55,22.71-.28,1.77.28,2.76,1.95,3.27,4.57,1.41,9.15,2.8,13.72,4.24,1.26.4,2.47.62,3.79-.08.24-1.47-.43-2.79-1.14-3.98-1.52-2.53-3.13-5.01-4.87-7.39-1.46-2-3.11-3.86-4.76-5.7-.81-.9-1.1-1.71-.31-2.73,1.47-1.89,2.89-3.82,4.43-5.64.42-.49,1.19-.84,1.84-.94,8.4-1.31,16.72-1.03,24.9,1.43.14.04.27.17.63.4-1.35,2.01-2.7,4.01-4.12,6.14-6.72-1.91-13.44-2.65-20.69-1.63.68.77,1.08,1.24,1.5,1.69,4.67,5.04,7.47,10.93,7.93,17.81.17,2.49,1.17,3.79,3.57,4.63,5.26,1.84,10.39,4.01,15.58,6.03.8.31,1.62.57,2.64.92Z"/>
      <path class="cls-7" d="m11.77,260.52c2.5,1.57,4.85,3.03,7.17,4.49,0,5.27-.52,10.45.38,15.86.71-.49,1.21-.83,1.71-1.19,4.94-3.57,10.3-6.39,15.85-8.88,4.46-2.01,8.52-1.49,12.44,1.22.59.41,1.18.81,2,1.37-2.45,8.52-4.9,17.07-7.39,25.71.87.44,1.48.77,2.11,1.07,3.26,1.53,5.89,3.81,7.91,6.78,1.51,2.22,2.24,4.63,1.32,7.26-1.37,3.91-2.79,7.8-4.28,11.66-.36.93-1.03,1.74-2.02,2.49,0-.49-.07-1,.01-1.47.8-4.55.9-9.11-.5-13.52-.71-2.24-1.94-4.35-3.1-6.42-.43-.78-1.33-1.29-2.26-2.16-.34,1.03-.51,1.78-.83,2.46-.96,2-1.77,4.12-3.04,5.92-1.48,2.11-3.59,2.59-5.96,1.59-4.31-1.82-8.25-4.25-11.35-7.81-3.72-4.27-2.72-8.01,2.6-9.97,2.97-1.1,6.04-1.46,9.19-1.05.7.09,1.4.18,2.2.28,1.92-6.62,3.82-13.16,5.77-19.88-.66,0-.98-.07-1.26,0-4.33,1.18-8.01,3.51-11.3,6.5-.28.25-.67.8-.58.97.9,1.58-.61,1.89-1.32,2.55-.52.48-1.2.79-1.81,1.16-2.79,1.71-5.41,2.06-8.43.07-6.27-4.14-5.62-3.4-5.92-10-.25-5.59-.1-11.17.68-17.06Zm22.82,42.37c-2.23-.47-4.18.12-6.04,1.02-1.46.71-1.73,1.71-.95,3.13.34.61.8,1.19,1.32,1.66,1.45,1.3,2.67,1.17,3.76-.46,1.06-1.58,1.64-3.37,1.91-5.35Z"/>
      <path class="cls-7" d="m132.45,125.96c-4.82-4.27-5.23-9.81-4.53-15.86-.89.31-1.53.54-2.41.86-1.21-1.9-1.97-4.03-2.25-6.34-.12-.99.23-1.73,1.32-1.93,1.26-.23,2.5-.54,3.77-.67,5.75-.59,11.47-.65,17.15.72,5.05,1.22,8.24,4.7,10.88,8.82,1.14,1.77.91,3.08-.75,4.45-2.52,2.08-5.19,3.98-7.78,5.98-.54.42-1.27.86-1.45,1.43-.5,1.63-1.64,2.69-2.8,3.8-3.29,3.15-6.57,6.31-9.81,9.51-2.05,2.02-3.65,2.43-6.27,1.27-1.3-.58-2.53-1.34-4.07-2.17.12.85.15,1.45.3,2.02.31,1.16.75,2.28,1.04,3.44.37,1.51.1,2.78-1.33,3.76-2.94,2.02-5.82,4.15-8.91,6.38-2.16-2.45-4.41-5.04-5.78-8.23-1.27-2.95-.63-6,.04-8.96.42-1.85,1.15-3.62,1.79-5.58-2.09-.48-2.26-2.26-2.58-4-.3-1.63-.67-3.25-1.11-5.33,1.16.66,1.91,1.06,2.64,1.5,3.71,2.2,7.42,4.42,11.13,6.61.89.53,1.8,1.03,2.73,1.51q3.78,1.96,6.87-1c.69-.66,1.4-1.28,2.18-1.99Zm-.51-9.84c.26,1.48-.21,3.66,1.68,4.45,1.6.67,3.2-.45,4.59-1.41.07-.04.13-.1.18-.15,1.53-1.46,1.81-4.62.53-5.9-1.01-1.01-3.93-1.63-5.19-1.04-1.66.78-1.77,2.31-1.79,4.06Zm-17.79,14.83c0,1.05-.13,1.69.02,2.24.52,1.79.3,3.4-.65,5.01-.65,1.1-.99,2.34-.53,3.65,3.21-1.08,7.23-4.67,8.07-7.25-2.16-1.14-4.33-2.29-6.92-3.66Zm27.05-21.98c.77,1.99,1.49,3.85,2.28,5.88,2.37-1.13,4.19-2.95,6.32-4.81-2.94-1.32-5.69-1.15-8.6-1.07Z"/>
      <path class="cls-7" d="m26.78,420.4c.56-1.41.64-2.6.27-4.03-.45-1.75-.34-3.64-.43-5.47-.05-1.03,0-2.06,0-3.39-1.31-.23-2.45-.41-3.58-.62-.68-.13-1.49-.11-2-.49-1.85-1.37-3.6-2.88-5.73-4.62,3.89-1.27,7.13.32,10.56.94.98-2.58.5-5.14,0-7.92-1.06-.23-2.15-.71-3.21-.65-1.37.08-2.29-.46-3.15-1.35-1.22-1.25-2.43-2.51-3.77-3.9,1.78-.51,3.45.13,5.09.38,1.64.25,3.24.79,5.1,1.27-.11-2.26-.21-4.45-.32-6.7-1.83-.45-3.17.56-4.96,1.17-2.04-1.71-4.21-3.53-6.47-5.42,3.33-1.32,15.39-.78,19.83.86.06,2.22.22,4.52.17,6.82-.05,2.44.67,4.91-.23,7.32,1.32,3.21.41,6.62.87,9.9.18,1.28-.14,2.22-1.72,2.58,1.72,1.18,2.01,2.7,2.05,4.48.05,1.97.43,3.95.74,5.91.39,2.5.35,4.81-2.71,6.42,3.06.75,3.91,2.65,4.2,5.15.58,4.84,1.38,9.64,2.08,14.46.4,2.8-.61,4.61-3.06,5.12-7.92,1.67-15.56,4.28-23.12,7.05-3.2,1.17-5.91,1.35-8.69-.74-.98-.74-2.17-1.21-3.64-2,1.13-.38,1.84-.65,2.57-.86,8.22-2.31,16.45-4.61,24.68-6.9,2.07-.57,2.68-1.49,2.4-3.43-.61-4.19-1.19-8.38-1.72-12.58-.35-2.81-.9-3.39-3.77-3.5-.79-.03-1.6.01-2.39.15-.7.12-1.37.41-2.24.68-2.29-1.46-4.69-2.99-7.43-4.74,2.47-1.02,4.65-1.24,6.82-1.35,2.23-.11,4.46-.02,6.92-.02Z"/>
      <path class="cls-7" d="m622,98.27c-.75.38-1.49.8-2.26,1.15-3.53,1.6-6.26,4.08-8.27,7.39-1.58,2.6-1.48,5.14.1,7.67.04.07.08.14.13.2,4.46,5.49,9.75,9.87,16.49,12.32.28.1.59.09,1.14.18-.56-4.32-3.9-6.75-6.2-10.12,1.84-1.08,3.49-2.18,5.26-3.05,1.38-.67,2.72-.46,3.96.68,2.76,2.54,5.71,4.89,8.43,7.48,1.96,1.86,3.66,3.99,5.49,5.99.7.76,1.43,1.5,1.96,2.05,3.19-.81,6.15-1.8,9.18-2.24,2.33-.33,4.76,0,7.14.15.76.05,1.54.43,2.24.8,2.56,1.35,3.09,3,1.69,5.49-.9,1.6-1.96,3.11-2.92,4.67-.55.88-1.11,1.76-1.55,2.7-.43.93-.7,1.93-1.1,3.07-3.24.68-6.58,1.38-10.13,2.13-2.41-3.73-3.73-7.91-5.31-12.1-.81.18-1.59.28-2.32.54-1.91.69-3.46.08-4.78-1.27-1.73-1.77-3.41-3.59-5.28-5.58-.67.73-1.27,1.44-1.93,2.08-2.1,2.06-4.49,2.85-7.43,2-6.95-2.01-13.29-5.1-18.36-10.35-1.52-1.57-2.74-3.55-3.69-5.53-1.51-3.15-1-6.29,1.13-9.03,3.88-5.02,8.87-8.48,15.04-10.1.63-.17,1.31-.11,1.97-.16.07.25.13.51.2.76Zm36.12,40.41c.92-1.53,1.67-2.55,2.19-3.68.53-1.15.19-2-.93-2.6-1.19-.64-2.46-.99-4-.13.88,2.06,1.71,4,2.75,6.41Z"/>
      <path class="cls-7" d="m578.99,38.72c-.36,1.03-.55,1.69-.82,2.31-3.44,7.9-6.88,15.8-10.34,23.69-.98,2.23-.61,2.86,1.69,3.76,1.53.61,2.87,1.69,4.39,2.62,2.97-5.65,8.15-7.53,14.3-8.25-.57-.81-1-1.43-1.49-2.15,1.48-1.56,3.25-2.77,5.24-3.62,1.52-.65,2.03-.57,2.69.93,1.15,2.63,2.18,5.31,3.06,8.04,1.36,4.21,1.99,8.53,1.85,12.98-.15,4.92-2.83,8.55-5.99,11.9-1.26,1.33-2.62,1.39-4.12.31-2.58-1.87-5.08-3.86-7.53-5.89-.87-.72-1.55-1.46-2.84-1.47-.81,0-1.67-.48-2.42-.91-1.25-.71-2.48-1.47-3.62-2.33-3.27-2.45-7.03-4.01-10.6-5.91-3.08-1.63-3.43-3.46-2.04-6.71,3.19-7.48,6.29-15.01,9.19-22.61.9-2.35,2.03-3.97,4.5-4.67,1.57-.45,3.04-1.23,4.93-2.02Zm9.44,33.24c.03-3.37-1.59-4.64-4.87-3.81-.31.08-.61.17-.91.28-3.99,1.43-4.36,3.51-1.12,6.29.36.31.77.58,1.2.76,2.87,1.24,5.67-.5,5.7-3.52Zm5.22,12.25c.34-3.46-.2-6.1-1.18-8.75-1.75,1.26-3.37,2.43-5.28,3.81,2.08,1.59,4.05,3.1,6.46,4.94Z"/>
      <path class="cls-7" d="m339.9,9.2c-1.03-1.25-.51-2.5.28-3.81.97-1.62,1.81-3.32,2.93-5.39.47,1.22.8,2.01,1.08,2.82,1.42,4.07,2.82,8.15,4.24,12.22.37,1.05.75,2.11,1.18,3.14q1.56,3.72,5.63,3.5c2.87-.15,5.74-.29,8.62-.44.15,0,.29-.11.55-.21.27-.83.54-1.74.87-2.63,1.39-3.81,3.47-7.22,6.49-9.93,1.15-1.04,2.61-1.87,4.07-2.4,2.04-.75,3.41-.04,4.21,1.97.62,1.55,1,3.2,1.57,4.77.84,2.3,1.77,4.57,2.79,7.19-1.42,2.58-3.06,5.58-4.76,8.68-4.47-.58-8.51-2.28-12.66-3.82-.39.76-.77,1.37-1.03,2.03-.82,2.04-2.37,2.83-4.49,2.96-3.03.19-6.05.49-9.07.8-2.75.28-4.5-.67-5.72-3.33-.55-1.2-.96-2.47-1.67-4.31-.79,1.72-1.36,2.9-1.87,4.1-1.31,3.07-2.01,3.41-5.31,3.06-3.08-.32-6.18-.46-9.44-.69-.24-3.33-.21-6.71.73-10.05.55-1.92,1.76-3.44,3.25-4.65,2.34-1.9,4.83-3.6,7.5-5.58Zm-6.8,12.19c3.91.68,7.49,1.04,11.14-.32-1.03-2.52-1.99-4.87-3.11-7.59-.65.84-1.22,1.32-1.46,1.93-.67,1.71-1.95,2.63-3.58,3.25-1.21.46-2.26,1.15-2.99,2.74Zm42.96-2.36c.15-.16.29-.32.44-.47-.19-.75-.34-1.51-.59-2.23-.93-2.67-2.49-3.1-4.56-1.24-.49.44-.85,1.04-1.53,1.89,2.3.76,4.27,1.41,6.24,2.06Z"/>
      <path class="cls-7" d="m698.71,203.45c3.11-1.39,6.47-2.63,10.1-2.72,1.37-.04,2.83.47,4.14,1,3.14,1.27,5.88,3.18,8.39,5.75,1.22-1.79,2.86-1.64,4.64-1.25,1.61.35,3.27.46,5.34.73-.84.8-1.36,1.35-1.94,1.83-3.68,3.07-7.4,6.1-11.05,9.19-1.22,1.03-2.33,2.19-3.43,3.34-.62.65-1.06,1.44-.64,2.39,2.48,5.52,4.96,11.04,7.56,16.8,2.85-1.72,4.3-4.27,5.37-7.37,2.95.43,5.9.86,9.27,1.36-5.75,6.68-12.28,11.15-20.74,12.72-.33-.58-.63-1.03-.85-1.52-3-6.52-5.98-13.06-8.99-19.57-.98-2.13-.77-4.06.81-5.75,1.03-1.09,2.2-2.06,3.63-3.38-1.08-.2-1.87-.4-2.67-.47-1.03-.09-2.08-.02-3.11-.12-1.49-.15-2.46-.92-2.87-2.45-.93-3.45-1.93-6.87-2.97-10.52Zm19.5,6.37c-1.19-.32-1.85-.6-2.52-.66-1.69-.13-3.01-.81-4.1-2.12-.87-1.05-1.98-1.82-3.67-1.94.57,3.77,1.69,7.17,4.09,10.36,2.02-1.84,3.93-3.58,6.2-5.64Z"/>
      <path class="cls-10" d="m426.5,14.48c2.28.71,4.1,1.25,5.9,1.85,1.96.67,3.91,1.39,5.85,2.11,1.27.48,2.06,1.5,1.82,2.78-.6,3.12-1.37,6.21-2.19,9.27-.13.5-.86.9-1.39,1.21-6.72,3.91-13.88,6.15-21.74,5.19-2.19-.27-4.43-.79-6.45-1.66-3.74-1.59-5.71-4.63-5.48-8.73.33-5.8,1.47-11.41,4.97-16.27.58-.8,1.1-1.73,2.67-1.83-.39.86-.65,1.48-.95,2.07-1.45,2.87-2.44,5.88-3.06,9.04-.52,2.67.42,4.69,2.34,6.39,2.15,1.91,4.68,3.02,7.48,3.57,7.24,1.43,13.92-.2,20.36-3.62-.6-1.82-2.1-2.3-3.51-2.7-2.3-.66-4.66-1.12-6.98-1.69-2.71-.67-4.09-2.53-3.11-5.13,2.88-7.64,7.56-13.67,15.86-15.99.61-.17,1.26-.28,1.89-.26,1.97.07,2.95,1.21,2.63,3.14-.38,2.29-1.15,4.46-2.52,6.38-.13-.06-.23-.08-.26-.14-1.6-2.5-2.77-2.98-5.51-2-3.5,1.26-6.08,3.68-8.6,7Z"/>
      <path class="cls-10" d="m744.42,263.96c-.93,0-1.61-.03-2.29,0-3.1.15-6.21.22-9.31.5-2.66.24-4.3,1.91-5.21,4.36-1.06,2.85-1.17,5.75-.58,8.73,1.41,7.16,5.42,12.63,10.83,17.27,1.27-.85,1.34-2.01,1.26-3.1-.16-2.15-.47-4.28-.73-6.42-.11-.87-.29-1.74-.35-2.61-.14-1.98.83-3.51,2.81-3.82,1.7-.27,3.5-.24,5.22-.06,4.02.42,7.79,1.7,11.25,3.82,2.42,1.49,4.49,3.35,5.78,5.93,1.15,2.28.46,3.68-1.99,4.22-2.21.48-4.41.58-6.67-.09,1.98-2.52,2-3.83-.08-6.14-2.48-2.76-5.66-4.27-9.57-5.25.11,1.75.2,3.16.27,4.56.12,2.47.19,4.95.34,7.42.1,1.71-.72,2.9-2.27,3.2-2.97.58-5.98.92-8.99,1.26-.46.05-1.05-.34-1.47-.67-6.55-5.09-11.52-11.27-13.45-19.54-.53-2.27-.85-4.53-.4-6.88.62-3.26,2.38-5.62,5.47-6.74,5.4-1.96,10.94-3.03,16.69-1.8,1.17.25,2.52.3,3.43,1.85Z"/>
      <path class="cls-12" d="m692.72,133.51c-2.45,2.55-4.54,4.82-6.73,6.99-4.36,4.33-8.76,8.63-13.17,12.91-1.86,1.81-1.83,2.51-.15,4.59,2.11,2.6,4.04,5.35,6.04,8.04,1.48,1.98,2.95,3.97,4.6,6.2,2.47-2.23,3.33-5.01,3.65-8.32,2.97-.22,5.93-.43,8.96-.65-1.71,6.1-10.33,14.47-17.24,16.76-.44-.54-.95-1.12-1.42-1.74-4.56-5.96-9.11-11.92-13.68-17.87-1.66-2.17-1.66-4.25.26-5.94,6.49-5.72,12.18-12.21,17.9-18.66,1.46-1.64,2.94-2.49,5.13-2.33,1.75.13,3.51.03,5.84.03Z"/>
      <path class="cls-12" d="m469.31,692.25c2.6,3.66,5.17,7.28,8.02,11.28-2.37,0-4.32.09-6.26-.06-.57-.04-1.21-.67-1.6-1.2-1.76-2.37-3.51-4.76-5.11-7.23-1.03-1.58-2.27-2.31-4.17-2.12-1.32.13-2.67.03-4.17.03v10.4h-5.37v-31.42c.69-.06,1.31-.17,1.92-.17,3.75,0,7.51-.08,11.26.07,2.05.09,4.13.41,6.12.93,3.47.9,5.32,3.35,5.72,6.87.13,1.11.14,2.23.13,3.35-.04,4.04-1.7,7.07-5.55,8.68-.29.12-.53.33-.93.59Zm-13.28-4.54c2.96,0,5.65,0,8.35,0,.56,0,1.12,0,1.67-.07,1.52-.2,2.67-1.02,3.47-2.29,2.12-3.37.62-7.35-3.25-8.29-3.35-.81-6.76-.23-10.24-.35v11Z"/>
      <path class="cls-10" d="m744.14,321c-.73-.22-1.45-.43-2.18-.65-2.78-.86-4.1-2.87-4.47-5.64-.35-2.61,1.07-4.25,3.1-5.47,2.52-1.51,5.21-2.48,8.21-1.74,2.16.53,4.35,1.03,6.43,1.78,1.16.42,2.26,1.22,3.19,2.07,2.92,2.67,2.91,5.83,0,8.5-3.05,2.8-6.79,4.16-10.77,4.85-5.9,1.03-11.78.77-17.57-.78-1-.27-1.98-.63-2.93-1.04-3.59-1.53-5.96-3.98-5.91-8.15.04-3.99.08-7.97.18-11.96.02-.69.31-1.38.59-2.51.36.91.62,1.39.75,1.9.93,3.77,2.63,7.18,4.77,10.39,3.03,4.54,7.27,7.33,12.52,8.61,1.29.31,2.66.32,3.99.47.04-.21.07-.42.11-.64Zm3.45-2.52c.84-.38,1.68-.65,2.4-1.12,1.68-1.09,2.74-3.04,2.21-4.14-.82-1.7-2.47-1.84-4.09-1.9-1.45-.05-2.05.44-2.32,1.85-.37,1.93.16,3.62,1.8,5.3Z"/>
      <path class="cls-9" d="m404.3,653.49h-5.88c-1.04-2.3-2.09-4.61-3.17-6.96h-15.85c-1.03,2.21-2.09,4.5-3.21,6.9h-5.59c.23-.69.37-1.29.62-1.85,4.09-9.37,8.22-18.72,12.25-28.1.59-1.38,1.34-1.99,2.84-1.84,1.26.12,2.53.02,3.95.02,4.66,10.58,9.28,21.07,14.03,31.83Zm-22.53-12.54h11.09c-1.84-4.17-3.58-8.1-5.56-12.56-1.96,4.46-3.67,8.34-5.54,12.56Z"/>
      <path class="cls-9" d="m211.2,703.38v-31.52h5.29v15.01c.92-.88,1.49-1.39,2.01-1.95,3.56-3.79,7.14-7.55,10.63-11.39,1.17-1.29,2.41-1.97,4.18-1.8,1.33.13,2.69.02,4.61.02-4.42,4.84-8.52,9.34-12.72,13.94,4.25,5.89,8.43,11.68,12.88,17.85-2.22,0-3.98.14-5.68-.07-.72-.09-1.5-.82-2-1.46-2.57-3.27-5.05-6.6-7.57-9.9-.53-.7-1.08-1.37-1.78-2.27-1.38,1.5-2.77,2.82-3.91,4.32-.47.62-.57,1.62-.6,2.46-.08,2.21-.03,4.43-.03,6.76h-5.3Z"/>
      <path class="cls-2" d="m461.23,621.59c5.44.1,10.79-.51,16.07.48,5.55,1.04,8.21,4.28,8.54,9.94,0,.16.03.32.03.48.22,6.79-3.08,10.71-9.82,11.48-2.21.25-4.46.21-6.69.29-.86.03-1.72,0-2.8,0v9.12h-5.17c-.49-1.58-.68-27.7-.16-31.79Zm5.39,17.74c3.13-.15,6.07-.1,8.96-.48,3.02-.4,4.2-1.88,4.51-4.96.08-.79.05-1.59,0-2.38-.11-2.29-1.4-3.69-3.52-4.27-3.25-.89-6.56-.71-9.95-.54v12.63Z"/>
      <path class="cls-12" d="m28.4,467.17c-2.62-.84-5.09-1.64-7.97-2.57,1.17-1.11,2.02-2.03,2.97-2.82,6.22-5.19,13.21-7.65,21.33-5.88.97.21,2.01.67,2.73,1.33,3.25,2.99,6.11,6.33,8.1,10.3,1.49,2.96,2.47,6.06,1.84,9.46-.7,3.8-2.78,6.6-6.21,8.31-5.52,2.77-11.33,3.12-17.26,1.68-.85-.2-1.59-.85-2.37-1.29.04-.19.08-.38.13-.57.47-.06.96-.22,1.41-.15,2.88.46,5.73.33,8.55-.4,5.23-1.34,7.75-5.34,6.75-10.67-.58-3.1-1.84-5.94-3.48-8.61-1.04-1.7-2.28-3.28-3.32-4.98-.72-1.18-1.6-1.35-2.83-.94-3.58,1.19-6.57,3.24-9.01,6.1-.41.48-.8.98-1.37,1.69Z"/>
      <path class="cls-11" d="m725.14,452.13q-1.89-3.26,1.13-5.41c.51-.36.99-.77,1.64-1.28-.78-1.18-1.54-2.28-2.24-3.43-.76-1.25-.68-1.77.47-2.63,1.46-1.09,2.99-2.09,4.63-3.23,1.63,1.57,2.64,3.48,3.76,5.28.47.75-.05,1.38-.65,1.84-1.08.81-2.19,1.58-3.45,2.48.56.9,1.02,1.7,1.53,2.48,1.69,2.55,1.67,2.72-.91,4.53-1.15.81-2.34,1.57-3.63,2.43-.77-1.02-1.37-1.83-2.01-2.68-2.77,7.14-1.73,19.47,5.96,25.92,1.05.88,2,1.24,3.23.77,1.41-.54,2.85-1.04,4.19-1.73,1.27-.65,2.43-1.51,3.87-2.42,1.93,1.5,3.98,3.09,6.22,4.83-.58.51-.98.98-1.48,1.29-5.15,3.1-10.49,4.51-16.39,2.07-4.91-2.03-9.15-4.83-12.1-9.37-1.57-2.41-2.12-4.8-1.02-7.67,1.51-3.96,2.96-7.92,5.3-11.49.56-.85,1.23-1.63,1.95-2.58Z"/>
      <path class="cls-6" d="m172.19,644.89c1.15,1.18,2.2,2.25,3.3,3.38-1.75,3.86-9.59,6.74-16.04,5.34-6.94-1.51-11.88-6.99-12.7-14.7-.73-6.79,2.92-13.64,9.47-16.54,6.03-2.67,14.92-2.24,20.07,3.99-1.08,1.2-2.17,2.43-3.4,3.8-3.17-2.97-6.75-4.51-11-3.82-2.76.45-5.12,1.72-6.95,3.91-4.26,5.09-2.75,11.27.73,15.06,4,4.35,10.3,4.16,16.51-.42Z"/>
      <path class="cls-15" d="m629.62,653.39v-19.07c1.66,0,3.24,0,4.82,0,1.68-.01,2.56,1.08,3.35,2.34,1.66,2.64,3.32,5.27,5,7.9.3.47.65.89,1.12,1.54,1.8-2.8,3.5-5.49,5.24-8.15,2.78-4.27,1.74-3.5,6.64-3.59.71-.01,1.42,0,2.25,0v18.95h-4.19v-13.86c-.71.75-1.11,1.06-1.38,1.46-1.98,2.91-3.93,5.83-5.89,8.75-.36.53-.69,1.09-1.13,1.55-1.1,1.15-2.21,1.16-3.29-.02-.59-.64-1.04-1.41-1.53-2.14-2.08-3.09-4.15-6.19-6.44-9.23-.52,4.51-.12,9.01-.44,13.6h-4.14Z"/>
      <path class="cls-7" d="m35.43,353.04c-.33,6.12-.66,12.1-.97,18.08-.06,1.11-.28,2.01-1.55,2.37-2.89.81-5.79,1.11-8.76.58-.19-.03-.35-.26-.74-.55,2.56-.89,2.66-2.89,2.73-5.05.13-3.99.44-7.97.68-11.94-3.62-1.07-9.45,2.44-12.66,7.68-2.35-1.59-4.69-3.17-7.03-4.76,4.78-6.75,18.41-10.25,28.3-6.42Z"/>
      <path class="cls-11" d="m46.07,354.33c.48-10.49-1.78-19.59-11.3-25.56-3.63.97-6.54,3-9.21,5.74-2.24-1.34-4.48-2.68-6.95-4.16.7-.68,1.2-1.29,1.81-1.75,4.68-3.55,9.76-5.31,15.69-3.67,5.12,1.42,9.68,3.7,13.12,7.89,1.77,2.15,2.58,4.38,1.89,7.29-1.06,4.44-2.13,8.84-4.25,12.92-.23.45-.53.87-.8,1.3Z"/>
      <path class="cls-10" d="m436.48,42.44c2.04.13,4.08.3,6.12.36,3.9.12,7.56-.86,11.13-2.39,3.35-1.43,5.8-3.86,8.05-6.61.67-.82.66-1.68.27-2.45-1.1-2.2-2.31-4.34-3.53-6.48-.31-.54-.8-.97-1.29-1.56,1.5-2.19,2.98-4.33,4.62-6.72,3.65,4.35,5.89,8.96,5.1,14.42-.79,5.49-3.18,10.34-7.23,14.26-.69.66-1.45,1.25-2.2,1.84-2.21,1.73-4.58,2.27-7.39,1.44-4.06-1.2-8.09-2.44-11.82-4.5-.68-.37-1.31-.82-1.97-1.23.04-.13.09-.26.13-.39Z"/>
      <path class="cls-10" d="m523.27,66.69c4.14,1.53,8.34,2.68,12.83,2.43,4.42-.25,8.43-1.51,12.04-4.16,1.28-.94,1.69-1.92,1.55-3.41-.28-2.9-1.08-5.62-2.59-8.37,1.98-1.71,3.96-3.42,6.06-5.23,1.61,2.26,2.02,4.73,2.36,7.25.48,3.61-.12,6.96-2.05,10.11-2.64,4.32-5.91,7.94-10.54,10.17-1,.48-2.06.87-3.12,1.2-1.83.57-3.56.4-5.29-.6-4.29-2.49-8.55-5-11.86-8.79.2-.19.41-.39.61-.58Z"/>
      <path class="cls-12" d="m697.24,186.67c2.55-.4,5.05-.8,7.77-1.23,0,.81.13,1.52-.02,2.17-1.25,5.59-3.71,10.3-9.2,12.92-5.18,2.47-10.48,3.74-16.22,2.5-2.39-.52-4.16-1.64-5.36-3.91-2.28-4.32-4.35-8.69-5.36-13.51-.07-.35-.1-.71.15-1.22.42.54.88,1.06,1.27,1.62,3.16,4.49,7.25,7.76,12.33,9.88,3.28,1.37,6.66,1.45,10.1,1.27.93-.05,1.54-.51,1.83-1.29.83-2.23,1.63-4.47,2.36-6.73.24-.74.22-1.55.34-2.49Z"/>
      <path class="cls-12" d="m106.91,185.63c1.46-2.81,3.15-5.46,4.27-8.34,2.24-5.78,2.51-11.63-.12-17.48-.71-1.57-1.65-2.22-3.2-2.33-2.8-.21-5.59-.16-8.55.84-1.25-2.29-2.5-4.57-3.82-6.97,1.84-.99,3.74-1.08,5.63-1.02,4.9.15,9.16,1.69,12.58,5.47,3.81,4.2,6.62,8.78,6.99,14.6.12,1.95-.36,3.56-1.68,5.05-3.2,3.6-6.57,6.99-10.66,9.59-.34.21-.67.43-1.03.61-.11.06-.29,0-.41-.02Z"/>
      <path class="cls-8" d="m580.53,690.68v12.71h-4.32v-18.84c2.42-.46,4.4-.23,6.26,1.74,3.29,3.48,6.87,6.69,10.33,10.01.57.55,1.17,1.06,2.1,1.91.45-4.76-.05-9.17.32-13.65h3.85c.49,1.66.65,14.73.23,18.83-2.74.65-5.02.15-7.07-2.06-2.94-3.15-6.16-6.04-9.27-9.04-.62-.6-1.28-1.17-1.91-1.75-.18.05-.35.1-.53.14Z"/>
      <path class="cls-16" d="m430,684.65v18.73c-2.68.55-4.92.37-6.97-1.83-3.1-3.33-6.5-6.38-9.78-9.54-.55-.53-1.14-1.03-2.15-1.94v13.34h-4.1c-.47-1.72-.56-16.09-.12-18.87,2.37-.5,4.36-.18,6.21,1.77,3.18,3.36,6.63,6.48,9.97,9.69.68.65,1.4,1.27,2.53,2.3.12-2.7.05-4.89.07-7.07.01-2.15,0-4.3,0-6.59h4.34Z"/>
      <path class="cls-15" d="m331.27,634.53c2.72-.68,4.7.13,6.55,2.04,3.22,3.33,6.64,6.47,9.98,9.68.56.54,1.15,1.05,2.12,1.93.16-4.77,0-9.1.11-13.59h4.22v18.78c-2.75.66-4.91.08-6.93-2.04-3.63-3.8-7.55-7.34-11.72-11.34-.28,4.66.03,8.91-.21,13.31h-4.14v-18.76Z"/>
      <path class="cls-13" d="m296.85,684.63c3.68,0,7.17,0,10.66,0,2.5,0,4.9.43,7.19,1.5,3.28,1.53,5.07,3.98,5.11,7.66.04,3.74-1.56,6.5-4.95,8.02-1.65.74-3.47,1.41-5.25,1.5-4.2.22-8.42.07-12.75.07v-18.76Zm4.48,15.52c2.78,0,5.32.13,7.83-.06,1.22-.09,2.48-.62,3.57-1.24,3.59-2.04,3.57-7.79-.07-9.73-3.57-1.9-7.43-1.75-11.33-1.38v12.4Z"/>
      <path class="cls-17" d="m557.35,703.93c-3.57-.14-7.04-.83-10.02-3.16-4.77-3.72-4.78-10.03,0-13.73,5.29-4.11,14.19-4.21,19.58-.22,5.28,3.9,5.18,10.52-.21,14.29-2.78,1.95-5.89,2.8-9.34,2.82Zm-.23-16.82c-2.53-.15-4.89.66-6.83,2.52-2.58,2.48-2.59,5.97-.06,8.48,3.58,3.55,10.65,3.49,14.16-.14,2.39-2.47,2.41-5.65.04-8.12-1.95-2.03-4.4-2.79-7.31-2.75Z"/>
      <path class="cls-14" d="m419.19,653.49v-19.15c1,0,1.93-.03,2.86,0,3.74.15,7.49.22,11.22.53,1.31.11,2.62.67,3.84,1.23,3.37,1.54,5.1,4.16,5.04,7.95-.06,3.79-1.84,6.44-5.29,7.77-2.06.79-4.27,1.45-6.45,1.6-3.64.26-7.32.07-11.21.07Zm4.54-3.4c2.71,0,5.24.09,7.76-.04,1-.05,2.01-.49,2.95-.91,2.2-.99,3.17-2.83,3.2-5.17.02-2.33-.89-4.22-3.09-5.23-3.44-1.58-7.06-1.56-10.82-1.22v12.56Z"/>
      <path class="cls-6" d="m491.35,634.33c5.21.23,10.26-.46,15.24.57,4.11.85,5.97,4.09,4.63,7.86-.48,1.36-1.39,2.31-2.63,2.97-.61.32-1.25.6-2.17,1.03,1.1,1.17,2.07,2.2,3.04,3.23.97,1.04,1.94,2.08,3.16,3.39-2.99.34-5.61.76-7.5-1.93-.41-.58-1.09-.99-1.46-1.58-1.89-3.05-4.73-3.06-8.02-2.52v6.03h-4.29v-19.05Zm4.37,9.57c2.79,0,5.49.04,8.18-.03.6-.02,1.24-.33,1.78-.64,1.3-.76,1.4-2.03,1.25-3.36-.14-1.19-.9-1.94-2.02-2.04-3-.27-6-.41-9.19-.61v6.67Z"/>
      <path class="cls-8" d="m529.56,653.67c-3.62.11-6.82-.69-9.63-2.77-5.23-3.86-5.25-10.27-.06-14.15,5.4-4.04,14.52-3.91,19.76.29,4.58,3.66,4.54,10.05-.12,13.61-2.98,2.27-6.37,3.24-9.95,3.02Zm-.16-3.03c2.65.02,5.06-.65,7.04-2.49,2.71-2.52,2.71-6.11.04-8.65-3.53-3.37-10.27-3.39-13.83-.04-2.74,2.58-2.69,6.3.13,8.82,1.88,1.67,4.13,2.34,6.61,2.36Z"/>
      <path class="cls-16" d="m270.4,684.73c4.74,0,9.2-.03,13.66.02.86,0,1.74.23,2.57.5,2.73.89,3.91,2.38,4.06,5,.16,2.71-.9,4.5-3.42,5.76-.49.24-.99.47-1.74.84,2.05,2.17,3.98,4.21,6.19,6.56-3.07.26-5.73.78-7.6-1.97-.27-.39-.71-.66-.97-1.06-1.96-3.03-4.76-3.73-8.36-2.87v5.88h-4.38v-18.66Zm4.36,9.13c3.01,0,5.87.14,8.69-.05,1.73-.12,2.68-1.48,2.68-3.12,0-1.6-.78-2.61-2.59-2.89-2.89-.44-5.81-.41-8.78-.07v6.13Z"/>
      <path class="cls-3" d="m596.88,653.56c-1.33,0-2.68.12-3.99-.05-.71-.09-1.47-.55-2.02-1.06-1.28-1.2-2.52-2.46-3.65-3.8-.97-1.15-2.08-1.64-3.56-1.52-1.02.08-2.05.02-3.31.02v6.23h-4.29v-18.82c.49-.06,1.02-.19,1.54-.19,3.28,0,6.56-.08,9.83.08,1.81.09,3.65.47,5.39.99,2.11.63,3.24,2.24,3.42,4.46.18,2.31-.4,4.29-2.52,5.55-.75.44-1.54.81-2.56,1.34,2.03,2.17,3.96,4.24,5.9,6.31-.06.16-.12.32-.18.48Zm-16.41-16.37v6.87c1.12,0,2.07.02,3.02,0,1.75-.04,3.5,0,5.23-.2,1.94-.24,2.96-1.43,3.01-3.11.06-1.77-.74-2.8-2.9-3.05-2.73-.32-5.49-.34-8.36-.5Z"/>
      <path class="cls-3" d="m224.93,646.76c2.06,2.18,4.01,4.24,6.28,6.63-2.92.17-5.5.93-7.37-1.75-.41-.58-1.09-.97-1.47-1.57-1.92-3.08-4.77-3.35-8.17-2.72v6.04h-4.31v-19.01c3.16,0,6.26-.09,9.34.03,2.22.09,4.47.25,6.62.76,3.16.74,4.44,2.8,4.23,6-.13,2.01-1.1,3.47-2.8,4.45-.67.39-1.4.68-2.35,1.13Zm-10.63-9.61v6.83c2.48,0,4.78.03,7.09-.02.7-.02,1.43-.18,2.09-.42,1.51-.55,2.17-1.6,2.09-3.11-.08-1.54-.75-2.47-2.52-2.68-2.83-.34-5.69-.41-8.75-.61Z"/>
      <path class="cls-17" d="m625.97,653.27c-4.01,1.36-5.77-.81-7.06-3.97-4.02,0-8.01-.05-11.98.06-.53.01-1.3.7-1.51,1.25-1.09,2.9-3.17,3.51-6.23,2.73.31-.66.56-1.34.93-1.97,2.94-5.04,5.96-10.03,8.81-15.11.83-1.47,1.78-2.12,3.42-1.92.78.09,1.58.02,2.5.02,3.69,6.28,7.36,12.53,11.11,18.92Zm-17.79-7.45h8.6c-1.45-2.47-2.78-4.71-4.31-7.31-1.53,2.61-2.83,4.82-4.29,7.31Z"/>
      <path class="cls-1" d="m500.51,684.56v2.99h-13.16v4.82h11.7v3.01h-11.64v5.05h13.55v2.93h-18.13v-18.8h17.68Z"/>
      <path class="cls-17" d="m327.42,653.49c-.68.04-1,.02-1.31.08-2.37.45-4.02-.38-4.86-2.7-.48-1.32-1.45-1.65-2.82-1.62-3.51.09-7.03.03-10.68.03-.47.73-1.06,1.41-1.38,2.2-.72,1.78-1.97,2.37-3.79,2.09-.54-.08-1.11-.01-1.95-.01.3-.72.47-1.3.76-1.8,3.01-5.18,6.03-10.36,9.08-15.52,1.49-2.51,4.72-2.76,6.63-.56.26.3.49.63.69.98,3.02,5.18,6.04,10.35,9.05,15.54.19.33.32.7.58,1.29Zm-13.45-14.98c-.89,1.51-1.55,2.6-2.19,3.7-.66,1.14-1.32,2.28-2.08,3.61h8.6c-1.47-2.49-2.8-4.72-4.33-7.31Z"/>
      <path class="cls-8" d="m569.21,636.41c-.81.86-1.5,1.6-2.26,2.41-2.54-1.4-5.18-1.75-7.93-1.55-1.8.13-3.44.66-4.92,1.68-3.81,2.63-3.76,7.4.12,9.94,3.1,2.03,6.46,2.01,9.9,1.07.53-.14,1.03-.39,1.69-.65v-4.88h4.53c0,1.9.05,3.71-.04,5.52-.02.48-.43.98-.76,1.39-.24.29-.63.51-.99.66-6,2.49-12,2.81-17.64-.76-5.7-3.61-5.7-10.52-.31-14.6,4.74-3.59,13.91-3.68,18.6-.22Z"/>
      <path class="cls-15" d="m383.34,699.26c-.59.99-1.16,1.77-1.54,2.64-.61,1.37-1.6,1.86-3.05,1.7-.75-.08-1.52-.01-2.58-.01.43-.89.67-1.47.98-2,2.98-5.1,5.95-10.2,8.96-15.28,1.67-2.82,5.24-2.86,6.95,0,3.16,5.27,6.23,10.59,9.33,15.9.19.32.27.69.47,1.2-.65.04-1.11.05-1.56.11-2.01.28-3.58-.17-4.31-2.33-.5-1.46-1.57-1.99-3.17-1.94-3.42.11-6.85.03-10.46.03Zm10.59-3.33c-1.51-2.56-2.84-4.84-4.35-7.39-1.52,2.6-2.84,4.88-4.31,7.39h8.66Z"/>
      <path class="cls-8" d="m527.34,686.5c-.71.77-1.34,1.46-1.99,2.17-1.73-.45-3.33-.93-4.96-1.26-2.96-.6-5.74-.01-8.2,1.73-3.69,2.61-3.63,7.32.15,9.8,3.75,2.46,7.69,2.05,11.8.51v-4.96h4.22v6.46c-2.07,1.93-4.73,2.46-7.44,2.81-4.08.52-7.98.02-11.52-2.22-6.02-3.81-6.2-11.07-.24-14.99,5.4-3.55,11.13-3.39,16.93-.95.42.18.76.53,1.26.89Z"/>
      <path class="cls-8" d="m245.42,650.65c1.05-.96,1.8-1.65,2.59-2.37,1.12.45,2.11,1.02,3.18,1.24,2.01.41,4.06.68,6.11.88.67.06,1.43-.19,2.05-.5,1.73-.87,1.77-2.3.12-3.23-.61-.35-1.33-.55-2.02-.72-1.55-.38-3.14-.62-4.67-1.05-1.37-.39-2.79-.8-4.01-1.51-3-1.73-3.17-5.45-.43-7.59.44-.34.92-.67,1.43-.86,5.01-1.92,9.81-1.22,14.89,1.2-.91.97-1.59,1.69-2.18,2.32-2.09-.49-4-1.11-5.95-1.34-1.3-.15-2.71.08-3.98.46-.59.17-1.32,1.11-1.31,1.69,0,.59.73,1.5,1.34,1.7,1.95.67,4.01,1.06,6,1.62,1.38.39,2.79.76,4.07,1.38,3.27,1.59,3.7,5.32.93,7.65-.66.56-1.44,1.09-2.25,1.33-5.49,1.57-10.68.92-15.91-2.29Z"/>
      <path class="cls-14" d="m353.6,686.29c-.88.93-1.57,1.66-2.02,2.14-2.5-.48-4.66-.97-6.85-1.26-.91-.12-1.89.17-2.82.35-.92.18-1.65.61-1.68,1.72-.03,1.07.58,1.58,1.52,1.84,1.61.45,3.22.91,4.83,1.37,1.61.46,3.24.85,4.81,1.41,1.83.65,2.8,2.02,2.89,3.99.09,1.94-.7,3.37-2.39,4.35-4.81,2.8-12.68,2.12-17.13-1.5,1.9-2.4,1.89-2.38,4.47-1.49,1.5.52,3.01,1.17,4.57,1.35,1.37.16,2.83-.15,4.22-.42.9-.18,1.72-.87,1.5-1.85-.14-.65-.81-1.42-1.42-1.66-1.47-.57-3.06-.85-4.59-1.28-1.68-.47-3.4-.87-5.02-1.51-1.84-.72-2.97-2.09-3-4.2-.03-2.08,1.01-3.56,2.8-4.36,1.43-.64,3.01-1.08,4.57-1.28,3.73-.46,7.23.35,10.75,2.28Z"/>
      <path class="cls-8" d="m181.68,634.49h4.1v7.91c.76.04,1.22.09,1.68.1,3.5,0,7,0,10.73,0v-7.9h4.33v18.69h-4.09v-7.27h-12.48v7.26h-4.27v-18.8Z"/>
      <path class="cls-8" d="m259.07,684.53h4.14c.1.26.3.55.3.83.03,3.52.11,7.04,0,10.55-.09,2.85-1.45,5.05-4.04,6.35-4.6,2.3-9.22,2.32-13.79-.14-2.27-1.23-3.67-3.14-3.74-5.75-.1-3.83-.03-7.66-.03-11.68h4.2c.06.79.16,1.56.16,2.33.02,2.56-.04,5.12.02,7.68.09,3.79,2.26,5.9,6.05,5.92.71,0,1.44-.05,2.14-.2,3.04-.64,4.42-2.18,4.54-5.29.1-2.72.03-5.44.03-8.16,0-.78,0-1.56,0-2.44Z"/>
      <path class="cls-11" d="m738.15,334.31c6.82-1.74,13.29-3.4,19.77-5.04,2.86-.73,5.72-1.47,8.59-2.12.64-.15,1.48-.2,2.01.09,2.29,1.26,4.5,2.66,7.12,4.23-3.16.67-5.86,1.21-8.56,1.81-5.68,1.26-11.36,2.58-17.05,3.82-4.12.89-7.94.01-11.89-2.78Z"/>
      <path class="cls-9" d="m369.41,687.52v15.87h-4.59v-15.69h-7.56v-3.05c6.45-.5,12.88-.34,19.46-.14v3.01h-7.3Z"/>
      <path class="cls-15" d="m268.32,637.5v-3.01h19.47c.04.83.08,1.65.13,2.74h-7.45v16.07h-4.49c-.51-5.13.01-10.37-.3-15.79h-7.36Z"/>
      <path class="cls-11" d="m523.27,66.69c-.2.19-.41.39-.61.58-.39-.44-.79-.89-1.21-1.37-.2.05-.43.07-.65.15q-2.9,1.05-4.19-1.87c-.32-.72-.66-1.42-1.11-2.39-1.23.52-2.37,1.03-3.53,1.48-1.72.67-2.19.48-2.97-1.24-.69-1.51-1.31-3.05-2.06-4.8,1.92-1.3,3.98-2.06,6.1-2.61.39-.1,1.2.64,1.52,1.17.65,1.08,1.09,2.28,1.75,3.7,1.25-.5,2.4-.97,3.55-1.42,1.72-.66,2.21-.51,2.97,1.18.73,1.64,1.74,3.19,1.89,5.13-.99.44-1.83.81-2.9,1.28.63.44,1.04.73,1.45,1.01Z"/>
      <path class="cls-4" d="m98.92,189.86c-.28-1.52-.54-2.75-.74-4-.22-1.38.1-1.96,1.41-2.31,1.46-.39,2.95-.63,4.44-.93.93-.19,1.52.08,1.67,1.13.2,1.42.51,2.82.72,4.23.24,1.55-.02,1.93-1.62,2.34-1.15.29-2.32.5-3.82.82.2,1.18.38,2.31.59,3.44.41,2.21.14,2.62-2.08,3.08-1.25.26-2.5.47-3.74.76-.92.22-1.38-.19-1.54-1.01-.32-1.56-.61-3.12-.87-4.69-.18-1.05.35-1.65,1.36-1.88,1.31-.3,2.62-.6,4.22-.97Z"/>
      <path class="cls-11" d="m4.12,430.95c-1.23-1.02-2.22-1.8-3.17-2.64-1.11-.98-1.23-1.53-.47-2.66.84-1.25,1.78-2.45,2.7-3.64.58-.74,1.24-.91,2.03-.23,1.14.99,2.33,1.93,3.5,2.89.9.75.97,1.57.23,2.49-.79.99-1.56,1.99-2.51,3.22,1.06.87,2.01,1.66,2.97,2.44,1.52,1.24,1.6,1.59.51,3.13-.78,1.11-1.64,2.15-2.43,3.25-.66.93-1.37.97-2.21.29-1.17-.96-2.35-1.91-3.51-2.88-.92-.76-.88-1.61-.17-2.5.79-.98,1.57-1.97,2.52-3.16Z"/>
      <path class="cls-4" d="m270.15,58.49c.98-1.88,1.76-3.44,2.59-4.98.58-1.08,1.5-1.08,2.47-.63,1.01.47,1.98,1.01,3.22,1.66.63-1.07,1.23-2.07,1.81-3.07,1-1.72,1.29-1.86,3.01-1.05,1.48.7,2.93,1.48,4.58,2.31-.99,1.9-1.81,3.52-2.67,5.12-.54,1-1.38.96-2.26.53-1.07-.52-2.14-1.07-3.42-1.71-.64,1.14-1.23,2.24-1.86,3.32-.83,1.44-1.17,1.58-2.68.89-1.5-.69-2.96-1.48-4.79-2.4Z"/>
      <path class="cls-15" d="m411.83,653.42h-3.97v-18.83c.7-.06,1.3-.14,1.9-.17.63-.03,1.26,0,2.07,0v19Z"/>
      <path class="cls-1" d="m325.42,684.61h4.08v18.77h-4.08v-18.77Z"/>
      <path class="cls-3" d="m236.37,653.38v-18.76h4.1v18.76h-4.1Z"/>
      <path class="cls-16" d="m538.47,703.41h-4.16v-18.72h4.16v18.72Z"/>
      <path class="cls-8" d="m292.92,634.45h3.84v18.96h-3.64c-.52-1.58-.69-15.24-.19-18.96Z"/>
      <path class="cls-4" d="m176.68,79.42c.99,1.38,1.81,2.52,2.76,3.85-3.84,2.79-7.55,5.49-11.5,8.37-.94-1.29-1.79-2.47-2.77-3.82,3.84-2.8,7.55-5.51,11.51-8.4Z"/>
      <path class="cls-15" d="m774.25,455.1c-1.07.22-1.91.39-2.94.6-1.21-3.46-4.2-5.36-7.01-8,3.8-1.2,7.33-2.29,9.69-5.88.66.91,1.17,1.62,1.79,2.49-1.3,2.08-3.5,3.22-6.13,4.19,2.05,1.81,3.66,3.75,4.59,6.61Z"/>
      <path class="cls-15" d="m635.09,94.2c2.34-.5,4.68-.95,7.39-.28-.28.93-.55,1.79-.84,2.74-3.65-.63-6.8.96-10.53,1.96.94-3.86,1.7-7.42.11-11.06.97-.26,1.78-.49,2.73-.75,1.18,2.33,1.12,4.66.75,7.03,0,.21.02.41.03.62.12-.09.24-.18.36-.26Z"/>
      <path class="cls-3" d="m22.11,471.89c1.91,1.16,3.54,2.11,5.13,3.13.69.44.85,1.14.43,1.88-.89,1.58-1.8,3.16-2.75,4.83-2.2-.58-3.79-1.92-5.45-3.08-.31-.22-.5-1.11-.31-1.47.87-1.75,1.89-3.42,2.95-5.29Z"/>
      <path class="cls-11" d="m700.61,236c2.27.36,4.09,1.34,5.88,2.31.36.19.56,1.17.43,1.68-.35,1.38-.92,2.72-1.42,4.06-.34.93-.96,1.17-1.89.77-1.31-.57-2.66-1.08-3.98-1.64-.86-.36-1.24-1.02-.93-1.92.59-1.71,1.23-3.41,1.91-5.25Z"/>
      <path class="cls-4" d="m705,157.36c-2.01-.33-3.72-.64-5.44-.87-1.14-.15-1.48-.82-1.36-1.84.19-1.73.42-3.45.65-5.28,2.25-.35,4.22.34,6.2.82.35.08.83.7.82,1.05-.08,2.03-.23,4.07-.86,6.13Z"/>
      <path class="cls-12" d="m778.3,381.56c1.69,1.13,2.91,2.81,4.16,4.43.23.3.13,1.15-.14,1.49-1.14,1.42-2.4,2.75-3.69,4.19-2.17-1.34-3.41-3-4.68-4.57-.25-.3-.06-1.31.27-1.67,1.24-1.33,2.63-2.52,4.08-3.88Z"/>
    </g>
  </g>
</svg>