<svg xmlns="http://www.w3.org/2000/svg" version="1.1" xmlns:xlink="http://www.w3.org/1999/xlink" width="512" height="512" x="0" y="0" viewBox="0 0 60 60" style="enable-background:new 0 0 512 512" xml:space="preserve" class=""><g><path d="M20.051 16.033c7.773.514 13.453 2.387 17.1 4.506-2.341-3.186-6.245-4.956-13.049-6.2-9.583-1.776-12.548-5.22-14.712-7.735l-.1-.113c.043 1.5.21 4.545.435 7.275a30.28 30.28 0 0 0 10.326 2.267z" fill="#634638" opacity="1" data-original="#000000" class=""></path><path d="m2.034 10.9.041.531c.573 7.669 2.1 28.04 24.275 28.861a1 1 0 0 1 .776 1.58c-.172.24-4.35 5.912-16.657 7.43A28.155 28.155 0 0 0 26.312 54a32.262 32.262 0 0 0 19.416-6.27C51.066 43.609 54 38.022 54 32a28.8 28.8 0 0 0-.613-5.329 8.284 8.284 0 0 1 1.477-6.781 7.44 7.44 0 0 1 2.668-2.154.817.817 0 0 0 .441-.517.742.742 0 0 0-.1-.615l-.73-1.1a6.189 6.189 0 0 0-10.05-.336l-6.263 9.386a1 1 0 0 1-.764.442 1.02 1.02 0 0 1-.816-.333c-2.442-2.75-8.8-5.937-19.332-6.635-10.592-.706-14.63-4.265-17.3-6.621-.203-.177-.396-.347-.584-.507z" fill="#634638" opacity="1" data-original="#000000" class=""></path></g></svg>