<svg xmlns="http://www.w3.org/2000/svg" version="1.1" xmlns:xlink="http://www.w3.org/1999/xlink" width="512" height="512" x="0" y="0" viewBox="0 0 60 60" style="enable-background:new 0 0 512 512" xml:space="preserve" class=""><g><path d="M24.034 42.14c-2.009 1.648-6.257 4.244-13.81 5.175a2.028 2.028 0 0 0-1.738 1.559 1.972 1.972 0 0 0 .831 2.113 30.547 30.547 0 0 0 17 5.013 33.825 33.825 0 0 0 20.633-6.687C52.791 44.805 56.005 38.655 56 32a30.767 30.767 0 0 0-.652-5.722 6.286 6.286 0 0 1 1.089-5.151 5.442 5.442 0 0 1 1.954-1.584A2.811 2.811 0 0 0 59.9 17.75a2.749 2.749 0 0 0-.364-2.256l-.728-1.094a8.207 8.207 0 0 0-6.815-3.643 8.254 8.254 0 0 0-6.526 3.25l-5.245 7.856c-2.393-5.216-6.892-7.871-15.759-9.488C15.574 10.728 12.875 7.592 10.9 5.3c-.22-.256-.432-.5-.648-.742a1.682 1.682 0 0 0-1.848-.449A1.783 1.783 0 0 0 7.28 5.778c-.009.905.132 3.918.356 6.922a23.638 23.638 0 0 1-3.7-2.793c-.344-.3-.667-.589-.981-.846a1.808 1.808 0 0 0-2.949 1.548l.075.969c.59 7.895 2.126 28.445 23.953 30.562zM9.291 6.494c.032.038.064.075.1.113 2.164 2.515 5.129 5.959 14.712 7.735 6.8 1.241 10.708 3.011 13.049 6.2-3.646-2.119-9.326-3.992-17.1-4.506a30.28 30.28 0 0 1-10.326-2.267c-.226-2.73-.392-5.778-.435-7.275zm-6.675 4.913c2.672 2.356 6.71 5.915 17.3 6.621 10.528.7 16.89 3.885 19.332 6.635a1.02 1.02 0 0 0 .816.333 1 1 0 0 0 .764-.442l6.262-9.383a6.193 6.193 0 0 1 10.05.336l.73 1.1a.742.742 0 0 1 .1.615.817.817 0 0 1-.441.517 7.44 7.44 0 0 0-2.668 2.154 8.284 8.284 0 0 0-1.477 6.781A28.8 28.8 0 0 1 54 32c0 6.023-2.934 11.61-8.272 15.731A32.262 32.262 0 0 1 26.312 54a28.155 28.155 0 0 1-15.843-4.7c12.307-1.518 16.485-7.19 16.657-7.43a1 1 0 0 0-.776-1.58C4.172 39.469 2.648 19.1 2.075 11.429l-.041-.529c.188.16.381.33.582.507z" fill="#634638" opacity="1" data-original="#000000" class=""></path></g></svg>